HIERARCHY
ROOT Hips
{
	OFFSET 0.053599 88.859886 3.107447
	CHANNELS 6 Xposition Yposition Zposition Zrotation Yrotation Xrotation 
	JOINT Spine
	{
		OFFSET -0.000000 8.814246 -2.080107
		CHANNELS 3 Zrotation Yrotation Xrotation
		JOINT Spine1
		{
			OFFSET 0.000000 8.844141 0.000000
			CHANNELS 3 Zrotation Yrotation Xrotation
			JOINT Spine2
			{
				OFFSET -0.000000 11.682268 0.000000
				CHANNELS 3 Zrotation Yrotation Xrotation
				JOINT Spine3
				{
					OFFSET 0.000000 11.746700 0.000000
					CHANNELS 3 Zrotation Yrotation Xrotation
					JOINT Neck
					{
						OFFSET -0.000000 17.658264 -0.000000
						CHANNELS 3 Zrotation Yrotation Xrotation
						JOINT Neck1
						{
							OFFSET -0.000000 5.101515 -0.000000
							CHANNELS 3 Zrotation Yrotation Xrotation
							JOINT Head
							{
								OFFSET 0.000000 5.101515 0.000000
								CHANNELS 3 Zrotation Yrotation Xrotation
								JOINT HeadEnd
								{
									OFFSET 0.000000 11.655085 0.000000
									CHANNELS 3 Zrotation Yrotation Xrotation
									End Site
									{
										OFFSET 0.000000 0.000000 0.000000
									}
								}
							}
						}
					}
					JOINT RightShoulder
					{
						OFFSET -2.625389 11.175210 0.000000
						CHANNELS 3 Zrotation Yrotation Xrotation
						JOINT RightArm
						{
							OFFSET -0.000000 10.434715 -0.000000
							CHANNELS 3 Zrotation Yrotation Xrotation
							JOINT RightForeArm
							{
								OFFSET -0.000000 29.628420 0.000000
								CHANNELS 3 Zrotation Yrotation Xrotation
								JOINT RightHand
								{
									OFFSET -0.000000 22.857611 0.000000
									CHANNELS 3 Zrotation Yrotation Xrotation
									JOINT RightHandThumb1
									{
										OFFSET -2.867323 3.959563 2.944291
										CHANNELS 3 Zrotation Yrotation Xrotation
										JOINT RightHandThumb2
										{
											OFFSET 0.000000 3.350399 0.000000
											CHANNELS 3 Zrotation Yrotation Xrotation
											JOINT RightHandThumb3
											{
												OFFSET 0.000000 3.756509 -0.000000
												CHANNELS 3 Zrotation Yrotation Xrotation
												JOINT RightHandThumb4
												{
													OFFSET 0.000000 3.147345 0.000000
													CHANNELS 3 Zrotation Yrotation Xrotation
													End Site
													{
														OFFSET 0.000000 0.000000 0.000000
													}
												}
											}
										}
									}
									JOINT RightHandIndex1
									{
										OFFSET -0.086752 10.030893 2.345280
										CHANNELS 3 Zrotation Yrotation Xrotation
										JOINT RightHandIndex2
										{
											OFFSET -0.000000 4.061090 0.000000
											CHANNELS 3 Zrotation Yrotation Xrotation
											JOINT RightHandIndex3
											{
												OFFSET -0.000000 3.248873 0.000000
												CHANNELS 3 Zrotation Yrotation Xrotation
												JOINT RightHandIndex4
												{
													OFFSET 0.000000 2.639709 -0.000000
													CHANNELS 3 Zrotation Yrotation Xrotation
													End Site
													{
														OFFSET 0.000000 0.000000 0.000000
													}
												}
											}
										}
									}
									JOINT RightHandMiddle1
									{
										OFFSET 0.104102 9.502952 0.006768
										CHANNELS 3 Zrotation Yrotation Xrotation
										JOINT RightHandMiddle2
										{
											OFFSET 0.000000 4.568727 0.000000
											CHANNELS 3 Zrotation Yrotation Xrotation
											JOINT RightHandMiddle3
											{
												OFFSET 0.000000 3.654981 -0.000000
												CHANNELS 3 Zrotation Yrotation Xrotation
												JOINT RightHandMiddle4
												{
													OFFSET -0.000000 2.741236 -0.000000
													CHANNELS 3 Zrotation Yrotation Xrotation
													End Site
													{
														OFFSET 0.000000 0.000000 0.000000
													}
												}
											}
										}
									}
									JOINT RightHandRing1
									{
										OFFSET 0.086752 8.921708 -2.267442
										CHANNELS 3 Zrotation Yrotation Xrotation
										JOINT RightHandRing2
										{
											OFFSET -0.000000 4.061090 0.000000
											CHANNELS 3 Zrotation Yrotation Xrotation
											JOINT RightHandRing3
											{
												OFFSET 0.000000 3.654981 -0.000000
												CHANNELS 3 Zrotation Yrotation Xrotation
												JOINT RightHandRing4
												{
													OFFSET 0.000000 2.741236 -0.000000
													CHANNELS 3 Zrotation Yrotation Xrotation
													End Site
													{
														OFFSET 0.000000 0.000000 0.000000
													}
												}
											}
										}
									}
									JOINT RightHandPinky1
									{
										OFFSET -0.173504 7.976997 -4.467199
										CHANNELS 3 Zrotation Yrotation Xrotation
										JOINT RightHandPinky2
										{
											OFFSET 0.000000 3.350399 -0.000000
											CHANNELS 3 Zrotation Yrotation Xrotation
											JOINT RightHandPinky3
											{
												OFFSET -0.000000 2.842763 0.000000
												CHANNELS 3 Zrotation Yrotation Xrotation
												JOINT RightHandPinky4
												{
													OFFSET -0.000000 2.639709 0.000000
													CHANNELS 3 Zrotation Yrotation Xrotation
													End Site
													{
														OFFSET 0.000000 0.000000 0.000000
													}
												}
											}
										}
									}
									JOINT RightForeArmEnd
									{
										OFFSET 0.000000 0.000000 0.000000
										CHANNELS 3 Zrotation Yrotation Xrotation
										End Site
										{
											OFFSET 0.000000 0.000000 0.000000
										}
									}
								}
								JOINT RightArmEnd
								{
									OFFSET 0.000000 0.000000 0.000000
									CHANNELS 3 Zrotation Yrotation Xrotation
									End Site
									{
										OFFSET 0.000000 0.000000 0.000000
									}
								}
							}
						}
					}
					JOINT LeftShoulder
					{
						OFFSET 2.625389 11.175210 0.000000
						CHANNELS 3 Zrotation Yrotation Xrotation
						JOINT LeftArm
						{
							OFFSET 0.000000 10.813635 -0.000000
							CHANNELS 3 Zrotation Yrotation Xrotation
							JOINT LeftForeArm
							{
								OFFSET 0.000000 28.724781 0.000000
								CHANNELS 3 Zrotation Yrotation Xrotation
								JOINT LeftHand
								{
									OFFSET 0.644384 25.716167 -0.328871
									CHANNELS 3 Zrotation Yrotation Xrotation
									JOINT LeftHandThumb1
									{
										OFFSET 2.867323 3.959563 2.944291
										CHANNELS 3 Zrotation Yrotation Xrotation
										JOINT LeftHandThumb2
										{
											OFFSET 0.000000 3.350399 0.000000
											CHANNELS 3 Zrotation Yrotation Xrotation
											JOINT LeftHandThumb3
											{
												OFFSET -0.000000 3.756509 0.000000
												CHANNELS 3 Zrotation Yrotation Xrotation
												JOINT LeftHandThumb4
												{
													OFFSET -0.000000 3.100000 0.000000
													CHANNELS 3 Zrotation Yrotation Xrotation
													End Site
													{
														OFFSET 0.000000 0.000000 0.000000
													}
												}
											}
										}
									}
									JOINT LeftHandIndex1
									{
										OFFSET 0.086752 10.030893 2.345280
										CHANNELS 3 Zrotation Yrotation Xrotation
										JOINT LeftHandIndex2
										{
											OFFSET -0.000000 4.061090 -0.000000
											CHANNELS 3 Zrotation Yrotation Xrotation
											JOINT LeftHandIndex3
											{
												OFFSET 0.000000 3.248873 -0.000000
												CHANNELS 3 Zrotation Yrotation Xrotation
												JOINT LeftHandIndex4
												{
													OFFSET 0.000000 2.639709 -0.000000
													CHANNELS 3 Zrotation Yrotation Xrotation
													End Site
													{
														OFFSET 0.000000 0.000000 0.000000
													}
												}
											}
										}
									}
									JOINT LeftHandMiddle1
									{
										OFFSET -0.104102 9.502952 0.006768
										CHANNELS 3 Zrotation Yrotation Xrotation
										JOINT LeftHandMiddle2
										{
											OFFSET -0.000000 4.568727 -0.000000
											CHANNELS 3 Zrotation Yrotation Xrotation
											JOINT LeftHandMiddle3
											{
												OFFSET 0.000000 3.654981 0.000000
												CHANNELS 3 Zrotation Yrotation Xrotation
												JOINT LeftHandMiddle4
												{
													OFFSET 0.000000 2.741236 -0.000000
													CHANNELS 3 Zrotation Yrotation Xrotation
													End Site
													{
														OFFSET 0.000000 0.000000 0.000000
													}
												}
											}
										}
									}
									JOINT LeftHandRing1
									{
										OFFSET -0.086752 8.921708 -2.267442
										CHANNELS 3 Zrotation Yrotation Xrotation
										JOINT LeftHandRing2
										{
											OFFSET 0.000000 4.061090 0.000000
											CHANNELS 3 Zrotation Yrotation Xrotation
											JOINT LeftHandRing3
											{
												OFFSET 0.000000 3.654981 0.000000
												CHANNELS 3 Zrotation Yrotation Xrotation
												JOINT LeftHandRing4
												{
													OFFSET 0.000000 2.741236 0.000000
													CHANNELS 3 Zrotation Yrotation Xrotation
													End Site
													{
														OFFSET 0.000000 0.000000 0.000000
													}
												}
											}
										}
									}
									JOINT LeftHandPinky1
									{
										OFFSET 0.173504 7.976997 -4.467199
										CHANNELS 3 Zrotation Yrotation Xrotation
										JOINT LeftHandPinky2
										{
											OFFSET -0.000000 3.350399 -0.000000
											CHANNELS 3 Zrotation Yrotation Xrotation
											JOINT LeftHandPinky3
											{
												OFFSET 0.000000 2.842763 0.000000
												CHANNELS 3 Zrotation Yrotation Xrotation
												JOINT LeftHandPinky4
												{
													OFFSET -0.000000 2.639709 -0.000000
													CHANNELS 3 Zrotation Yrotation Xrotation
													End Site
													{
														OFFSET 0.000000 0.000000 0.000000
													}
												}
											}
										}
									}
									JOINT LeftForeArmEnd
									{
										OFFSET 0.000000 0.000000 0.000000
										CHANNELS 3 Zrotation Yrotation Xrotation
										End Site
										{
											OFFSET 0.000000 0.000000 0.000000
										}
									}
								}
								JOINT LeftArmEnd
								{
									OFFSET 0.000000 0.000000 0.000000
									CHANNELS 3 Zrotation Yrotation Xrotation
									End Site
									{
										OFFSET 0.000000 0.000000 0.000000
									}
								}
							}
						}
					}
				}
			}
		}
	}
	JOINT RightUpLeg
	{
		OFFSET -11.289943 0.000000 0.000000
		CHANNELS 3 Zrotation Yrotation Xrotation
		JOINT RightLeg
		{
			OFFSET 0.000000 -38.200325 0.000000
			CHANNELS 3 Zrotation Yrotation Xrotation
			JOINT RightFoot
			{
				OFFSET -0.000000 -39.900856 -0.000000
				CHANNELS 3 Zrotation Yrotation Xrotation
				JOINT RightToeBase
				{
					OFFSET 0.000000 0.000000 15.261641
					CHANNELS 3 Zrotation Yrotation Xrotation
					JOINT RightToeBaseEnd
					{
						OFFSET 0.000000 0.000000 7.370709
						CHANNELS 3 Zrotation Yrotation Xrotation
						End Site
						{
							OFFSET 0.000000 0.000000 0.000000
						}
					}
				}
				JOINT RightLegEnd
				{
					OFFSET 0.000000 0.000000 0.000000
					CHANNELS 3 Zrotation Yrotation Xrotation
					End Site
					{
						OFFSET 0.000000 0.000000 0.000000
					}
				}
			}
			JOINT RightUpLegEnd
			{
				OFFSET 0.000000 0.000000 0.000000
				CHANNELS 3 Zrotation Yrotation Xrotation
				End Site
				{
					OFFSET 0.000000 0.000000 0.000000
				}
			}
		}
	}
	JOINT LeftUpLeg
	{
		OFFSET 11.315661 -0.000000 0.000000
		CHANNELS 3 Zrotation Yrotation Xrotation
		JOINT LeftLeg
		{
			OFFSET -0.000000 -38.200325 -0.000000
			CHANNELS 3 Zrotation Yrotation Xrotation
			JOINT LeftFoot
			{
				OFFSET 0.000000 -39.900856 -0.000000
				CHANNELS 3 Zrotation Yrotation Xrotation
				JOINT LeftToeBase
				{
					OFFSET -0.000000 -0.000000 15.261641
					CHANNELS 3 Zrotation Yrotation Xrotation
					JOINT LeftToeBaseEnd
					{
						OFFSET 0.000000 -0.000000 7.539996
						CHANNELS 3 Zrotation Yrotation Xrotation
						End Site
						{
							OFFSET 0.000000 0.000000 0.000000
						}
					}
				}
				JOINT LeftLegEnd
				{
					OFFSET 0.000000 0.000000 0.000000
					CHANNELS 3 Zrotation Yrotation Xrotation
					End Site
					{
						OFFSET 0.000000 0.000000 0.000000
					}
				}
			}
			JOINT LeftUpLegEnd
			{
				OFFSET 0.000000 0.000000 0.000000
				CHANNELS 3 Zrotation Yrotation Xrotation
				End Site
				{
					OFFSET 0.000000 0.000000 0.000000
				}
			}
		}
	}
}
MOTION
Frames: 4
Frame Time: 0.016667
0.053599 88.859886 3.107447 0.490481 0.055862 -6.497332 0.023754 -0.000539 5.886370 -1.012250 0.067046 0.861970 0.478071 -2.416792 3.829567 0.155030 -0.780500 1.929224 2.330515 0.848112 5.016849 0.371683 2.117863 -3.221864 -0.714533 -0.852149 -18.222401 0.000000 0.000000 0.000000 92.418694 -0.394880 9.707912 65.456573 -33.431271 5.091406 -0.130291 12.440493 22.353239 6.882370 13.743960 -6.458578 10.637670 -1.840800 39.870983 0.000000 0.000000 -25.919998 0.000000 0.000000 -18.000004 0.000000 0.000000 0.000000 12.845482 -0.000000 -9.527125 8.991838 0.000000 0.000000 8.991838 0.000000 0.000000 0.000000 0.000000 0.000000 11.286146 -0.000000 -11.044980 7.900302 0.000000 0.000000 7.900302 0.000000 0.000000 0.000000 0.000000 0.000000 11.199185 0.000000 -11.348525 7.839428 0.000000 0.000000 7.839428 0.000000 0.000000 0.000000 0.000000 0.000000 10.416969 0.000000 -12.591636 7.291878 0.000000 0.000000 7.291878 0.000000 0.000000 0.000000 0.000000 0.000000 0.000000 0.000000 0.000000 0.000000 0.000000 0.000000 -90.370071 0.051974 5.208683 -71.842018 19.306828 -7.574249 -0.664994 -8.642401 40.885647 -0.139946 -25.486511 -15.477552 -11.236528 1.888869 39.607231 0.000000 0.000000 -27.360001 0.000000 0.000000 -18.999998 0.000000 0.000000 0.000000 -16.692022 0.000000 -11.498048 -11.684413 0.000000 0.000000 -11.684413 0.000000 0.000000 0.000000 0.000000 0.000000 -15.977510 0.000000 -11.317391 -11.184259 0.000000 0.000000 -11.184259 0.000000 0.000000 0.000000 0.000000 0.000000 -18.180992 -0.000000 -10.528083 -12.726697 0.000000 0.000000 -12.726697 0.000000 0.000000 0.000000 0.000000 0.000000 -19.065912 -0.000000 -9.698054 -13.346139 0.000000 0.000000 -13.346139 0.000000 0.000000 0.000000 0.000000 0.000000 0.000000 0.000000 0.000000 0.000000 0.000000 0.000000 -1.045058 -10.518975 11.869204 -0.078405 -0.635030 3.758801 -2.197730 -7.901679 18.681496 -0.890004 0.828132 -18.870453 0.000000 0.000000 0.000000 0.000000 0.000000 0.000000 0.000000 0.000000 0.000000 -1.784023 -6.543907 7.474547 0.053202 0.398207 7.545935 3.843466 -1.785134 17.966772 0.194973 -0.390531 -20.817129 0.000000 0.000000 0.000000 0.000000 0.000000 0.000000 0.000000 0.000000 0.000000 
0.082736 88.232811 3.016036 -0.201087 -0.215477 -7.904719 1.330588 -0.196608 6.825265 -1.145610 0.172269 2.655242 0.647877 -1.677285 2.828154 -0.736954 -0.286805 3.368026 2.348964 0.929237 2.961766 0.930316 2.301227 -3.672386 -0.705687 -1.085034 -17.786970 0.000000 0.000000 0.000000 91.943146 -0.527950 9.646639 66.466202 -31.392426 4.517406 -0.205523 13.739603 23.352245 6.841841 12.258160 -5.285231 10.372226 -1.814140 39.876991 -0.000001 0.000027 -25.418467 0.000012 0.000045 -17.470678 0.000000 -0.000003 -0.000020 12.138567 0.102912 -8.987433 8.547407 -0.024500 -0.206434 8.651847 0.002867 -0.202156 -0.000026 0.000028 -0.000022 10.897816 0.035794 -10.308109 7.778358 -0.017430 -0.064713 7.885326 0.000976 -0.058440 0.000019 0.000016 0.000013 10.765672 -0.092400 -10.454253 7.766387 0.054825 0.014003 7.791255 0.009782 0.013593 -0.000015 -0.000006 0.000010 10.113008 -0.264681 -11.986917 7.433019 0.155757 -0.050888 7.338629 0.061653 -0.017836 0.000102 -0.000005 0.000006 0.000000 0.000000 0.000000 0.000000 0.000000 0.000000 -88.797234 0.131207 6.341162 -71.377533 19.325266 -5.492958 -1.234464 -10.432094 40.684292 -0.010500 -23.651964 -15.029983 -10.877552 1.818393 39.618412 0.000004 0.000019 -26.760370 -0.000037 -0.000025 -18.410128 -0.000225 0.000002 0.000014 -16.479860 0.142919 -9.627628 -11.207430 0.004815 0.270501 -11.531816 0.029445 0.237592 0.000011 0.000142 -0.000006 -15.837956 0.070179 -10.348975 -11.008040 -0.006079 0.100885 -10.822896 0.011770 0.090632 -0.000242 -0.000046 -0.000044 -17.609959 -0.047226 -10.698412 -12.227655 0.029930 -0.176086 -12.100978 -0.010811 -0.112501 0.000435 0.000012 0.000006 -18.233761 -0.225338 -11.485008 -12.710612 0.039110 -0.369472 -12.686735 -0.033936 -0.315629 -0.000202 -0.000011 -0.000033 0.000000 0.000000 0.000000 0.000000 0.000000 0.000000 -0.772483 -10.296220 12.077399 -0.022039 -0.628046 4.761309 -2.434274 -8.691024 19.086657 -0.865295 0.855698 -18.769869 0.000000 0.000000 0.000000 0.000000 0.000000 0.000000 0.000000 0.000000 0.000000 -1.386181 -5.722186 8.644205 0.050391 0.422383 7.010831 3.578171 -0.658267 18.520432 0.311667 -0.492372 -20.940929 0.000000 0.000000 0.000000 0.000000 0.000000 0.000000 0.000000 0.000000 0.000000 
0.079585 88.215866 2.991191 -0.182128 -0.256263 -7.986680 1.274619 -0.175706 6.866254 -1.072542 0.164504 2.724267 0.562425 -1.683913 2.863434 -0.711454 -0.306913 3.380814 2.478041 0.828134 3.102851 0.902541 2.243316 -3.558567 -0.725021 -1.073216 -17.843517 0.000000 0.000000 0.000000 91.960258 -0.515775 9.671949 66.429283 -31.336302 4.711924 -0.225290 13.730326 23.045279 6.837293 12.105892 -5.462409 10.336497 -1.810252 39.896500 -0.000002 0.000046 -25.308270 0.000015 0.000038 -17.405962 0.000012 0.000004 -0.000034 12.095334 0.106253 -8.949385 8.493983 -0.028895 -0.188040 8.593561 -0.000613 -0.183773 -0.000005 0.000042 -0.000017 10.862944 0.036198 -10.289165 7.731605 -0.019468 -0.055837 7.827072 -0.000969 -0.050701 0.000015 0.000007 0.000002 10.785147 -0.091918 -10.468594 7.718538 0.057376 0.001110 7.732550 0.012640 0.004107 -0.000021 -0.000014 -0.000003 10.177192 -0.265941 -12.038447 7.413866 0.163732 -0.077099 7.317331 0.066858 -0.039734 0.000114 0.000005 0.000002 0.000000 0.000000 0.000000 0.000000 0.000000 0.000000 -88.814178 0.112992 6.335917 -71.289040 19.483242 -5.384947 -1.186713 -10.139009 40.543732 0.128990 -23.596653 -15.457269 -10.841143 1.811767 39.637276 0.000016 0.000023 -26.658026 -0.000046 -0.000013 -18.337198 -0.000346 0.000013 -0.000005 -16.345034 0.148709 -9.746010 -11.140556 -0.001307 0.239117 -11.455112 0.023858 0.206459 0.000025 0.000090 0.000003 -15.681602 0.072198 -10.490387 -10.932784 -0.008159 0.086415 -10.751682 0.009516 0.078979 -0.000263 -0.000040 -0.000065 -17.433149 -0.044491 -10.879538 -12.144656 0.033737 -0.155732 -12.023092 -0.007906 -0.099086 0.000506 0.000017 0.000011 -18.076891 -0.214257 -11.711479 -12.656969 0.049843 -0.305307 -12.636848 -0.024600 -0.268769 -0.000183 0.000008 -0.000051 0.000000 0.000000 0.000000 0.000000 0.000000 0.000000 -0.775711 -10.332147 12.094178 -0.021423 -0.626195 4.766749 -2.425767 -8.577570 19.074747 -0.852765 0.859358 -18.782961 0.000000 0.000000 0.000000 0.000000 0.000000 0.000000 0.000000 0.000000 0.000000 -1.341573 -5.616654 8.677746 0.048230 0.413894 6.985723 3.560668 -0.721332 18.556686 0.314999 -0.492168 -20.942707 0.000000 0.000000 0.000000 0.000000 0.000000 0.000000 0.000000 0.000000 0.000000 
0.077650 88.204109 2.971595 -0.168383 -0.306702 -8.058622 1.233564 -0.154475 6.907344 -1.016666 0.157512 2.781432 0.514530 -1.682064 2.905491 -0.678073 -0.318431 3.357294 2.520081 0.764313 3.191444 0.887540 2.195378 -3.487020 -0.729902 -1.066923 -17.881599 0.000000 0.000000 0.000000 91.987968 -0.499779 9.710246 66.409264 -31.169863 4.823066 -0.245322 13.761936 22.794374 6.816371 11.996953 -5.566595 10.325521 -1.810116 39.901142 0.000000 0.000046 -25.259764 0.000013 0.000040 -17.383602 0.000012 0.000004 -0.000034 12.056972 0.106651 -8.984698 8.445301 -0.030947 -0.176238 8.533107 -0.002134 -0.171701 -0.000005 0.000042 -0.000018 10.832984 0.035739 -10.327606 7.680794 -0.020411 -0.050307 7.771267 -0.001978 -0.045789 0.000014 0.000010 0.000004 10.800778 -0.090672 -10.503804 7.671271 0.058310 -0.005739 7.682633 0.014100 -0.000947 -0.000019 0.000024 -0.000002 10.210700 -0.263398 -12.068578 7.392190 0.166342 -0.087060 7.294952 0.067907 -0.047922 0.000119 0.000005 -0.000006 0.000000 0.000000 0.000000 0.000000 0.000000 0.000000 -88.825523 0.111734 6.335575 -71.294395 19.596197 -5.393331 -1.154686 -9.990835 40.463676 0.071214 -23.404888 -15.648808 -10.827019 1.810593 39.641918 0.000015 0.000024 -26.615974 -0.000051 -0.000013 -18.305960 -0.000462 0.000011 0.000020 -16.233784 0.149712 -9.792418 -11.055306 -0.005828 0.216603 -11.363676 0.020134 0.183022 0.000023 0.000052 0.000003 -15.543805 0.072474 -10.567203 -10.845485 -0.009835 0.076192 -10.666471 0.007856 0.070275 -0.000270 -0.000041 -0.000080 -17.266623 -0.041386 -10.990955 -12.052283 0.036179 -0.141343 -11.934274 -0.006059 -0.089182 0.000480 0.000017 0.000011 -17.923307 -0.204906 -11.866018 -12.589155 0.056650 -0.261732 -12.569517 -0.018862 -0.234149 -0.000177 0.000008 -0.000052 0.000000 0.000000 0.000000 0.000000 0.000000 0.000000 -0.789326 -10.320735 12.103817 -0.020945 -0.624394 4.776669 -2.428582 -8.473576 19.084305 -0.844232 0.860393 -18.799412 0.000000 0.000000 0.000000 0.000000 0.000000 0.000000 0.000000 0.000000 0.000000 -1.315129 -5.513129 8.718371 0.045552 0.404723 6.968716 3.556789 -0.701348 18.581470 0.317072 -0.490261 -20.944054 0.000000 0.000000 0.000000 0.000000 0.000000 0.000000 0.000000 0.000000 0.000000 
